<svg width="463" height="527" viewBox="0 0 463 527" fill="none" xmlns="http://www.w3.org/2000/svg">
<path d="M71.6415 0.142403L279.887 0C301.896 0.00065625 312.36 3.9877 328.156 20.1705C349.013 42.1463 371.56 72.2548 378.586 102.167C384.767 128.486 377.956 161.171 377.933 188.342C379.187 190.679 382.349 194.691 384.081 197.003C387.601 201.651 391.072 206.335 394.496 211.054C415.104 239.536 436.024 268.589 453.604 299.082C455.382 302.918 460.732 310.694 461.017 314.72C461.87 326.71 461.172 339.98 461.3 352.032C461.395 360.832 462.536 369.553 462.271 378.108C461.565 388.86 461.172 404.361 455.552 413.811C451.566 420.515 440.866 430.617 435.181 436.497L417.41 455.191L384.268 490.169C379.823 494.832 376.244 498.927 371.559 503.556C365.481 509.689 356.643 520.261 350.374 525.528C345.785 526.276 334.287 525.912 329.232 525.885L290.506 525.708C241.721 525.337 192.935 525.475 144.153 526.118C133.103 526.227 122.053 526.269 111.003 526.246C98.4283 526.259 82.1944 526.984 70.0649 523.838C61.1578 521.528 47.2766 506.867 46.3341 497.525C45.473 488.991 45.967 477.671 45.9716 468.749L45.9555 409.168L45.6652 188.096C43.3072 184.515 37.8426 178.091 34.9896 174.241C28.0049 164.787 21.5234 154.971 15.5716 144.835C11.4078 137.7 2.76442 121.632 1.00577 113.653C-0.624619 106.254 0.212557 89.0535 0.23224 80.7736L0.240769 29.5362C0.238473 20.2558 0.505825 9.33844 0.0803504 0.177185C7.49319 0.481357 17.1249 0.22509 24.6447 0.215903L71.6415 0.142403ZM144.079 151.586C146.907 159.815 154.081 174.277 157.859 182.778L190.565 255.474L201.602 279.985C203.494 284.146 206.477 290.111 208.03 294.245L176.444 294.56C170.712 294.616 163.698 294.455 158.102 294.915C160.093 300.368 163.845 307.774 166.373 313.185L180.119 342.742L219.558 427.31C221.116 430.782 228.991 449.449 231.457 450.256C233.739 451.004 267.305 450.725 271.981 450.535C271.637 440.484 269.723 427.884 268.606 417.558L259.314 338.464L256.91 318.468C256.597 315.977 255.634 309.605 255.766 307.4C258.274 305.149 286.989 308.447 289.44 305.533L281.094 211.456L278.224 180.895C277.427 171.428 276.846 160.705 275.206 151.375C271.041 150.639 255.286 150.839 250.396 150.893C235.885 151.055 220.572 150.622 206.12 151.095L144.079 151.586Z" fill="white"/>
</svg>
